<svg width="30" height="30" viewBox="0 0 30 30" fill="none" xmlns="http://www.w3.org/2000/svg">
<path fill-rule="evenodd" clip-rule="evenodd" d="M14.7926 24.7915C14.2919 24.8524 13.3279 24.9696 12.8343 25.746C12.3898 26.4453 11.2243 27.4663 10.7669 27.8669C10.671 27.9509 10.6063 28.0076 10.5858 28.0284C9.99408 28.5089 8.50296 29.0855 8.21893 28.9894L1.47337 27.3076C1.27613 27.1875 1.11833 26.707 1.11834 26.5869L1 8.08745L14.4911 1.12013L15.9112 1L28.6923 7.96732L28.574 27.3076C28.5715 27.5761 28.3117 27.8868 27.8639 27.9083C27.5516 27.9233 27.105 28.0177 26.7933 28.0836C26.6186 28.1205 26.4863 28.1485 26.4438 28.1485C25.8992 28.2433 25.195 28.3754 24.5274 28.5007C23.5024 28.6931 22.5634 28.8693 22.4201 28.8693C22.277 29.0273 20.3674 28.8797 19.4615 28.1485C18.7452 27.5704 17.6078 26.3292 17.0461 25.7163C16.8975 25.5541 16.7892 25.4359 16.7396 25.3856C16.7396 25.3856 16.3169 24.9005 15.5562 24.785C15.282 24.7433 14.8462 24.785 14.8462 24.785C14.829 24.7871 14.8111 24.7893 14.7926 24.7915ZM19.9462 11.7398C19.9558 11.2085 20.1066 11.0751 20.5215 11L23.1103 11.1233C23.56 11.2353 23.672 11.3782 23.6856 11.7398L23.8294 15.1924C23.7387 15.5791 23.5759 15.7082 23.1103 15.8089H20.3777C19.9816 15.7201 19.7922 15.6412 19.8024 15.1924L19.9462 11.7398ZM6.1457 11.8631C6.21314 11.4562 6.36313 11.3154 6.86481 11.2466L8.01539 11.1233H9.45362C9.98135 11.0824 10.1309 11.2272 10.1727 11.7398V15.3157C10.031 15.5466 9.89432 15.6406 9.45362 15.6856L6.57717 15.8089C6.07784 15.7236 5.98451 15.5702 6.00188 15.1924L6.1457 11.8631Z" />
<path d="M12.8343 25.746L13.2563 26.0142L13.2563 26.0142L12.8343 25.746ZM14.7926 24.7915L14.7323 24.2952L14.7323 24.2952L14.7926 24.7915ZM10.7669 27.8669L10.4374 27.4908L10.4374 27.4908L10.7669 27.8669ZM10.5858 28.0284L10.901 28.4165L10.9225 28.3991L10.942 28.3793L10.5858 28.0284ZM8.21893 28.9894L8.37919 28.5158L8.35978 28.5092L8.33989 28.5043L8.21893 28.9894ZM1.47337 27.3076L1.21329 27.7347L1.27842 27.7743L1.35242 27.7928L1.47337 27.3076ZM1.11834 26.5869L1.61835 26.5869L1.61833 26.5837L1.11834 26.5869ZM1 8.08745L0.77057 7.64319L0.498048 7.78393L0.50001 8.09064L1 8.08745ZM14.4911 1.12013L14.449 0.621905L14.35 0.63028L14.2617 0.675872L14.4911 1.12013ZM15.9112 1L16.1506 0.560992L16.0187 0.489123L15.8691 0.501779L15.9112 1ZM28.6923 7.96732L29.1923 7.97038L29.1941 7.67141L28.9316 7.52831L28.6923 7.96732ZM28.574 27.3076L29.0739 27.3123L29.074 27.3107L28.574 27.3076ZM27.8639 27.9083L27.8879 28.4077L27.8879 28.4077L27.8639 27.9083ZM26.7933 28.0836L26.6899 27.5944L26.6898 27.5944L26.7933 28.0836ZM26.4438 28.1485V27.6485H26.4006L26.3581 27.6559L26.4438 28.1485ZM24.5274 28.5007L24.6196 28.9921L24.6196 28.9921L24.5274 28.5007ZM22.4201 28.8693V28.3693H22.1985L22.0496 28.5335L22.4201 28.8693ZM19.4615 28.1485L19.7756 27.7594L19.7756 27.7594L19.4615 28.1485ZM17.0461 25.7163L16.6775 26.0541L16.6775 26.0541L17.0461 25.7163ZM16.7396 25.3856L16.3627 25.7141L16.3727 25.7256L16.3835 25.7365L16.7396 25.3856ZM15.5562 24.785L15.4812 25.2793L15.4812 25.2793L15.5562 24.785ZM14.8462 24.785L14.7986 24.2871L14.7848 24.2888L14.8462 24.785ZM20.5215 11L20.5453 10.5006L20.4885 10.4979L20.4325 10.508L20.5215 11ZM19.9462 11.7398L20.4459 11.7607L20.4461 11.7489L19.9462 11.7398ZM23.1103 11.1233L23.2311 10.6381L23.1833 10.6262L23.1341 10.6239L23.1103 11.1233ZM23.6856 11.7398L23.186 11.7586L23.186 11.7606L23.6856 11.7398ZM23.8294 15.1924L24.3162 15.3066L24.3318 15.24L24.329 15.1716L23.8294 15.1924ZM23.1103 15.8089V16.3089H23.1638L23.216 16.2976L23.1103 15.8089ZM20.3777 15.8089L20.2682 16.2968L20.3223 16.3089H20.3777V15.8089ZM19.8024 15.1924L19.3027 15.1716L19.3025 15.1811L19.8024 15.1924ZM6.86481 11.2466L6.81153 10.7495L6.80419 10.7502L6.79688 10.7512L6.86481 11.2466ZM6.1457 11.8631L5.65243 11.7814L5.64747 11.8113L5.64617 11.8416L6.1457 11.8631ZM8.01539 11.1233V10.6233H7.98868L7.96211 10.6262L8.01539 11.1233ZM9.45362 11.1233V11.6233H9.47296L9.49225 11.6218L9.45362 11.1233ZM10.1727 11.7398H10.6727V11.7195L10.6711 11.6992L10.1727 11.7398ZM10.1727 15.3157L10.5989 15.5772L10.6727 15.4569V15.3157H10.1727ZM9.45362 15.6856L9.47503 16.1852L9.48976 16.1845L9.50442 16.183L9.45362 15.6856ZM6.57717 15.8089L6.49293 16.3018L6.5454 16.3108L6.59858 16.3085L6.57717 15.8089ZM6.00188 15.1924L6.50135 15.2154L6.50141 15.214L6.00188 15.1924ZM13.2563 26.0142C13.6052 25.4654 14.3129 25.3535 14.853 25.2879L14.7323 24.2952C14.2709 24.3513 13.0506 24.4737 12.4124 25.4778L13.2563 26.0142ZM11.0963 28.243C11.3249 28.0428 11.7395 27.6798 12.1539 27.277C12.5594 26.8829 12.9998 26.4177 13.2563 26.0142L12.4124 25.4778C12.2243 25.7736 11.8597 26.1685 11.4569 26.5599C11.0631 26.9426 10.6662 27.2904 10.4374 27.4908L11.0963 28.243ZM10.942 28.3793C10.9374 28.3839 10.9372 28.3838 10.9467 28.3752C10.9545 28.368 10.9654 28.3582 10.98 28.3453C11.0092 28.3193 11.0479 28.2854 11.0963 28.243L10.4374 27.4908C10.3538 27.5641 10.267 27.6395 10.2296 27.6775L10.942 28.3793ZM8.05868 29.463C8.20278 29.5118 8.34899 29.5015 8.43191 29.4925C8.53267 29.4815 8.64121 29.4592 8.74858 29.4319C8.96473 29.377 9.21766 29.291 9.4721 29.1896C9.9692 28.9915 10.5459 28.7049 10.901 28.4165L10.2706 27.6403C10.034 27.8324 9.56926 28.0744 9.10187 28.2607C8.87405 28.3515 8.66397 28.4216 8.50216 28.4628C8.42055 28.4835 8.36138 28.4943 8.32391 28.4983C8.26862 28.5043 8.3061 28.4911 8.37919 28.5158L8.05868 29.463ZM1.35242 27.7928L8.09798 29.4746L8.33989 28.5043L1.59433 26.8225L1.35242 27.7928ZM0.618343 26.5868C0.618336 26.6901 0.645214 26.7989 0.664605 26.8681C0.688348 26.9529 0.721461 27.0485 0.762041 27.1436C0.802138 27.2375 0.854161 27.3418 0.918619 27.4385C0.978049 27.5277 1.07347 27.6495 1.21329 27.7347L1.73345 26.8806C1.74621 26.8884 1.75494 26.8952 1.75988 26.8994C1.76244 26.9016 1.76427 26.9033 1.76541 26.9044C1.76656 26.9055 1.76713 26.9061 1.76717 26.9061C1.7672 26.9061 1.7668 26.9057 1.76597 26.9047C1.76515 26.9038 1.76398 26.9023 1.7625 26.9004C1.75948 26.8965 1.75552 26.8911 1.75076 26.8839C1.73015 26.853 1.70575 26.8072 1.68174 26.7509C1.65822 26.6958 1.63955 26.6413 1.62755 26.5984C1.62156 26.5771 1.61827 26.5623 1.61681 26.5546C1.61442 26.5419 1.61835 26.5564 1.61834 26.5869L0.618343 26.5868ZM0.50001 8.09064L0.618353 26.5901L1.61833 26.5837L1.49999 8.08425L0.50001 8.09064ZM14.2617 0.675872L0.77057 7.64319L1.22943 8.5317L14.7206 1.56438L14.2617 0.675872ZM15.8691 0.501779L14.449 0.621905L14.5333 1.61835L15.9534 1.49822L15.8691 0.501779ZM28.9316 7.52831L16.1506 0.560992L15.6719 1.43901L28.453 8.40633L28.9316 7.52831ZM29.074 27.3107L29.1923 7.97038L28.1923 7.96426L28.074 27.3046L29.074 27.3107ZM27.8879 28.4077C28.553 28.3757 29.0685 27.8907 29.0739 27.3123L28.074 27.303C28.0742 27.2813 28.0805 27.3014 28.0435 27.3362C28.0125 27.3653 27.9499 27.4036 27.8399 27.4088L27.8879 28.4077ZM26.8967 28.5728C27.2228 28.5038 27.6247 28.4203 27.8879 28.4077L27.8399 27.4088C27.4784 27.4262 26.9871 27.5316 26.6899 27.5944L26.8967 28.5728ZM26.4438 28.6485C26.5231 28.6485 26.619 28.6295 26.6636 28.6209C26.7292 28.6082 26.811 28.5909 26.8967 28.5728L26.6898 27.5944C26.6009 27.6132 26.5291 27.6284 26.4743 27.639C26.4469 27.6442 26.4284 27.6475 26.4168 27.6492C26.4112 27.6501 26.4099 27.6502 26.412 27.6499C26.4124 27.6499 26.4248 27.6485 26.4438 27.6485V28.6485ZM24.6196 28.9921C25.2883 28.8666 25.9889 28.7352 26.5295 28.6411L26.3581 27.6559C25.8095 27.7514 25.1017 27.8842 24.4351 28.0093L24.6196 28.9921ZM22.4201 29.3693C22.5039 29.3693 22.6337 29.3499 22.7434 29.3327C22.8728 29.3123 23.0397 29.2836 23.2311 29.2493C23.6145 29.1808 24.1078 29.0882 24.6196 28.9921L24.4351 28.0093C23.9219 28.1056 23.4333 28.1973 23.0551 28.2649C22.8658 28.2988 22.707 28.3261 22.5881 28.3448C22.4493 28.3666 22.408 28.3693 22.4201 28.3693V29.3693ZM19.1475 28.5376C19.6996 28.9832 20.5045 29.2214 21.139 29.3346C21.4655 29.3928 21.7731 29.4226 22.0177 29.4261C22.1383 29.4278 22.2566 29.4234 22.3597 29.4086C22.4105 29.4014 22.4713 29.3898 22.5326 29.3692C22.58 29.3532 22.6947 29.3109 22.7906 29.205L22.0496 28.5335C22.1276 28.4474 22.2106 28.4224 22.2139 28.4213C22.2311 28.4156 22.2353 28.4163 22.2184 28.4187C22.1861 28.4233 22.1246 28.4275 22.032 28.4262C21.8499 28.4236 21.5967 28.4004 21.3146 28.3501C20.7322 28.2462 20.1293 28.0449 19.7756 27.7594L19.1475 28.5376ZM16.6775 26.0541C17.2274 26.6542 18.3947 27.93 19.1475 28.5376L19.7756 27.7594C19.0957 27.2107 17.9882 26.0042 17.4148 25.3785L16.6775 26.0541ZM16.3835 25.7365C16.4248 25.7784 16.5243 25.8869 16.6775 26.0541L17.4148 25.3785C17.2707 25.2213 17.1536 25.0933 17.0958 25.0347L16.3835 25.7365ZM15.4812 25.2793C15.7716 25.3234 15.9984 25.4382 16.1532 25.5429C16.2303 25.595 16.2876 25.6433 16.3236 25.6764C16.3415 25.6928 16.3539 25.7052 16.3605 25.7121C16.3639 25.7155 16.3657 25.7175 16.3661 25.7179C16.3663 25.7181 16.3661 25.7179 16.3655 25.7173C16.3652 25.717 16.3648 25.7166 16.3644 25.716C16.3641 25.7158 16.3639 25.7155 16.3636 25.7151C16.3635 25.715 16.3633 25.7148 16.3632 25.7146C16.3631 25.7145 16.363 25.7144 16.3629 25.7144C16.3628 25.7142 16.3627 25.7141 16.7396 25.3856C17.1166 25.0571 17.1165 25.057 17.1164 25.0569C17.1163 25.0568 17.1162 25.0567 17.1161 25.0566C17.1159 25.0563 17.1157 25.0561 17.1155 25.0559C17.1152 25.0555 17.1147 25.055 17.1143 25.0545C17.1134 25.0535 17.1124 25.0524 17.1113 25.0511C17.1091 25.0487 17.1064 25.0457 17.1033 25.0423C17.0972 25.0356 17.0892 25.0271 17.0794 25.017C17.06 24.9969 17.0334 24.9705 16.9998 24.9397C16.9328 24.8782 16.8369 24.798 16.7132 24.7144C16.4665 24.5476 16.1016 24.3621 15.6313 24.2907L15.4812 25.2793ZM14.8462 24.785C14.8937 25.2827 14.8937 25.2827 14.8936 25.2827C14.8936 25.2827 14.8936 25.2827 14.8936 25.2827C14.8935 25.2827 14.8935 25.2827 14.8935 25.2827C14.8934 25.2827 14.8934 25.2827 14.8934 25.2827C14.8934 25.2827 14.8935 25.2827 14.8937 25.2827C14.8942 25.2827 14.895 25.2826 14.8962 25.2825C14.8985 25.2823 14.9024 25.2819 14.9077 25.2815C14.9183 25.2806 14.9342 25.2793 14.9545 25.2778C14.9952 25.2749 15.0521 25.2714 15.1165 25.269C15.2542 25.264 15.3927 25.2659 15.4812 25.2793L15.6313 24.2907C15.4455 24.2624 15.229 24.2643 15.0802 24.2697C15.0013 24.2726 14.9322 24.2769 14.8826 24.2804C14.8577 24.2822 14.8375 24.2839 14.8231 24.2851C14.8159 24.2857 14.8102 24.2862 14.8061 24.2866C14.804 24.2868 14.8023 24.2869 14.8011 24.287C14.8005 24.2871 14.7999 24.2871 14.7995 24.2872C14.7993 24.2872 14.7991 24.2872 14.799 24.2872C14.7989 24.2872 14.7988 24.2872 14.7988 24.2872C14.7987 24.2872 14.7987 24.2872 14.7987 24.2872C14.7986 24.2873 14.7986 24.2873 14.8462 24.785ZM14.8529 25.2879C14.8713 25.2856 14.8897 25.2834 14.9075 25.2812L14.7848 24.2888C14.7682 24.2908 14.7509 24.2929 14.7323 24.2952L14.8529 25.2879ZM20.4325 10.508C20.2071 10.5488 19.9088 10.6249 19.6974 10.8792C19.4915 11.1269 19.4515 11.4433 19.4463 11.7308L20.4461 11.7489C20.4482 11.6357 20.4577 11.5691 20.4671 11.5312C20.4755 11.4972 20.4801 11.5019 20.4663 11.5185C20.4515 11.5363 20.4399 11.5386 20.4562 11.5316C20.4782 11.5221 20.5228 11.5079 20.6105 11.492L20.4325 10.508ZM23.1341 10.6239L20.5453 10.5006L20.4977 11.4994L23.0865 11.6227L23.1341 10.6239ZM24.1853 11.721C24.1771 11.5034 24.138 11.2298 23.9322 11.0024C23.7407 10.7909 23.4738 10.6986 23.2311 10.6381L22.9895 11.6085C23.0854 11.6324 23.1421 11.6529 23.1751 11.6684C23.2057 11.6828 23.203 11.6869 23.1908 11.6734C23.1568 11.6359 23.1805 11.6146 23.186 11.7586L24.1853 11.721ZM24.329 15.1716L24.1852 11.719L23.186 11.7606L23.3299 15.2132L24.329 15.1716ZM23.216 16.2976C23.4641 16.244 23.7243 16.1664 23.9333 15.9897C24.1595 15.7984 24.259 15.5505 24.3162 15.3066L23.3426 15.0782C23.3257 15.1506 23.3103 15.1884 23.3004 15.2075C23.2926 15.2226 23.2888 15.2251 23.2876 15.2261C23.2761 15.2359 23.2221 15.2732 23.0046 15.3202L23.216 16.2976ZM20.3777 16.3089H23.1103V15.3089H20.3777V16.3089ZM19.3025 15.1811C19.296 15.4676 19.3497 15.7767 19.6013 16.0055C19.8102 16.1956 20.0918 16.2572 20.2682 16.2968L20.4871 15.3211C20.3905 15.2994 20.3319 15.2836 20.2916 15.2689C20.2532 15.2548 20.2574 15.2505 20.2741 15.2657C20.2968 15.2863 20.3075 15.3097 20.3095 15.3162C20.3095 15.3162 20.3071 15.3084 20.305 15.2895C20.3029 15.2704 20.3014 15.2426 20.3023 15.2037L19.3025 15.1811ZM19.4467 11.719L19.3028 15.1716L20.302 15.2132L20.4458 11.7606L19.4467 11.719ZM6.79688 10.7512C6.52773 10.7882 6.23881 10.8552 6.01393 11.0511C5.7736 11.2605 5.69262 11.5389 5.65243 11.7814L6.63897 11.9449C6.66622 11.7805 6.69396 11.7849 6.6709 11.805C6.66462 11.8105 6.67086 11.8019 6.71177 11.788C6.75524 11.7731 6.82381 11.7569 6.93275 11.742L6.79688 10.7512ZM7.96211 10.6262L6.81153 10.7495L6.91809 11.7438L8.06867 11.6205L7.96211 10.6262ZM9.45362 10.6233H8.01539V11.6233H9.45362V10.6233ZM10.6711 11.6992C10.6497 11.4371 10.5959 11.0854 10.3249 10.8479C10.0501 10.6071 9.69099 10.6034 9.41499 10.6248L9.49225 11.6218C9.60472 11.6131 9.66552 11.6173 9.69507 11.6225C9.71876 11.6268 9.69667 11.627 9.66586 11.6C9.63568 11.5736 9.63381 11.553 9.64228 11.5786C9.65241 11.6092 9.66533 11.6694 9.67438 11.7805L10.6711 11.6992ZM10.6727 15.3157V11.7398H9.67273V15.3157H10.6727ZM9.50442 16.183C9.74346 16.1586 9.9679 16.116 10.1636 16.01C10.378 15.8937 10.5043 15.7313 10.5989 15.5772L9.74657 15.0542C9.7212 15.0956 9.70645 15.1135 9.69895 15.1214C9.69394 15.1267 9.69166 15.1283 9.68702 15.1308C9.66874 15.1407 9.60447 15.1676 9.40281 15.1882L9.50442 16.183ZM6.59858 16.3085L9.47503 16.1852L9.4322 15.1861L6.55575 15.3094L6.59858 16.3085ZM5.50241 15.1694C5.4929 15.3762 5.49862 15.6853 5.71824 15.9382C5.92477 16.176 6.22992 16.2568 6.49293 16.3018L6.66141 15.3161C6.55473 15.2979 6.49515 15.2799 6.46396 15.2671C6.43573 15.2556 6.45039 15.2561 6.47328 15.2825C6.4986 15.3117 6.50451 15.338 6.50404 15.3357C6.50202 15.3259 6.49779 15.2928 6.50135 15.2154L5.50241 15.1694ZM5.64617 11.8416L5.50234 15.1708L6.50141 15.214L6.64524 11.8847L5.64617 11.8416Z"/>
</svg>
